<?xml version="1.0" encoding="UTF-8"?>
<!DOCTYPE svg PUBLIC "-//W3C//DTD SVG 1.1//EN" "http://www.w3.org/Graphics/SVG/1.1/DTD/svg11.dtd">
<!-- Creator: CorelDRAW X8 -->
<svg xmlns="http://www.w3.org/2000/svg" xml:space="preserve" width="100px" height="141px" version="1.1" style="shape-rendering:geometricPrecision; text-rendering:geometricPrecision; image-rendering:optimizeQuality; fill-rule:evenodd; clip-rule:evenodd"
viewBox="0 0 1000000 1414286"
 xmlns:xlink="http://www.w3.org/1999/xlink">
 <defs>
  <style type="text/css">
   <![CDATA[
    .fil3 {fill:#2A3FAA}
    .fil1 {fill:#E24818}
    .fil2 {fill:#E89F38}
    .fil0 {fill:#ECE3C0}
    .fil4 {fill:black;fill-rule:nonzero}
   ]]>
  </style>
 </defs>
 <g id="Capa_x0020_1">
  <metadata id="CorelCorpID_0Corel-Layer"/>
  <path class="fil0" d="M952897 84777l-902703 -352c-1496,174521 -35,351723 -53,526769 -11,103172 -18959,217405 73538,281887 21794,15194 269534,132137 304667,147788 52565,23417 88868,27894 145174,1479l245133 -117194c18658,-9604 43449,-19188 59526,-30574 94892,-67206 74696,-170331 74791,-279956 151,-173706 2831,-358548 -73,-529847z"/>
  <g id="_2957025792144">
   <path class="fil0" d="M630286 912480l-58279 30670c-21111,10917 -37699,22381 -66713,22496 -28155,110 -46103,-12044 -66874,-22357 -12073,-5995 -50556,-24301 -58583,-31427 -11064,-3122 -162878,-83319 -188743,-96214 -23701,-11816 -36253,-22605 -48754,-44482 -8314,-14550 -12350,-36766 -14171,-61398l0 -302866 753279 0c2643,23032 769,248619 808,281133 133,109394 -36375,113080 -126006,159476l-93211 48503c-10908,5562 -21307,12607 -32753,16466z"/>
   <path class="fil1" d="M379837 911862c8027,7126 46510,25432 58583,31427 20771,10313 38719,22467 66874,22357 29014,-115 45602,-11579 66713,-22496l58279 -30670 270 -505578 -251053 203 334 504757z"/>
   <path class="fil2" d="M379503 407105l251053 -203 250892 0c2643,23032 769,248619 808,281133 133,109394 -36375,113080 -126006,159476l-93211 48503c-10908,5562 -21307,12607 -32753,16466l270 -505578 -251523 0 470 203z"/>
   <path class="fil3" d="M379837 911862l-334 -504757 -470 -203 -250864 0 0 302866c1821,24632 5857,46848 14171,61398 12501,21877 25053,32666 48754,44482 25865,12895 177679,93092 188743,96214z"/>
  </g>
  <path class="fil4" d="M309718 275708l48650 12442c-7471,22810 -19923,39737 -37298,50829 -17375,11043 -39383,16590 -66083,16590 -33070,0 -60233,-9404 -81546,-28212 -21255,-18808 -31912,-44512 -31912,-77160 0,-34481 10714,-61294 32086,-80391 21371,-19097 49518,-28646 84384,-28646 30464,0 55194,7523 74191,22521 11351,8874 19807,21605 25483,38243l-49692 9837c-2954,-10705 -9093,-19193 -18418,-25414 -9382,-6221 -20734,-9307 -34054,-9307 -18476,0 -33477,5497 -44944,16541 -11525,10995 -17259,28839 -17259,53529 0,26139 5676,44801 16970,55893 11351,11140 26062,16686 44190,16686 13379,0 24904,-3520 34518,-10609 9614,-7090 16564,-18181 20734,-33372z"/>
  <path id="1" class="fil4" d="M625652 352096l-54268 0 -21487 -47164 -99789 0 -20677 47164 -53283 0 96604 -207174 53226 0 99674 207174zm-92087 -82175l-34576 -76678 -33591 76678 68167 0z"/>
  <path id="2" class="fil4" d="M652467 144922l91624 0c20676,0 36429,1302 47259,3954 14538,3569 27048,9934 37414,19097 10426,9115 18302,20303 23746,33565 5387,13213 8109,29562 8109,48948 0,17072 -2549,31732 -7645,44078 -6197,15094 -15059,27295 -26584,36603 -8688,7089 -20444,12586 -35213,16541 -11062,2942 -25831,4388 -44364,4388l-94346 0 0 -207174zm50387 35011l0 137152 37356 0c13959,0 24036,-675 30233,-1977 8166,-1688 14884,-4582 20213,-8633 5386,-4051 9730,-10705 13089,-19965 3417,-9259 5096,-21942 5096,-37953 0,-16010 -1679,-28259 -5096,-36844 -3359,-8583 -8108,-15239 -14190,-20061 -6081,-4774 -13784,-8054 -23166,-9742 -6950,-1301 -20676,-1977 -41063,-1977l-22472 0z"/>
 </g>
</svg>
