<?xml version="1.0" encoding="UTF-8"?>
<!DOCTYPE svg PUBLIC "-//W3C//DTD SVG 1.1//EN" "http://www.w3.org/Graphics/SVG/1.1/DTD/svg11.dtd">
<!-- Creator: CorelDRAW X8 -->
<svg xmlns="http://www.w3.org/2000/svg" xml:space="preserve" width="200px" height="283px" version="1.1" style="shape-rendering:geometricPrecision; text-rendering:geometricPrecision; image-rendering:optimizeQuality; fill-rule:evenodd; clip-rule:evenodd"
viewBox="0 0 2000000 2828571"
 xmlns:xlink="http://www.w3.org/1999/xlink">
 <defs>
  <style type="text/css">
   <![CDATA[
    .fil3 {fill:#2A3FAA}
    .fil1 {fill:#E24818}
    .fil2 {fill:#E89F38}
    .fil0 {fill:#ECE3C0}
    .fil4 {fill:black;fill-rule:nonzero}
   ]]>
  </style>
 </defs>
 <g id="Capa_x0020_1">
  <metadata id="CorelCorpID_0Corel-Layer"/>
  <path class="fil0" d="M1905793 79684l-1805404 -736c-2994,365118 -72,735845 -106,1102063 -22,215848 -37918,454837 147075,589742 43589,31787 539069,276444 609334,309189 105130,48992 177736,58358 290349,3094l490266 -245184c37315,-20092 86898,-40143 119051,-63964 189785,-140602 149392,-356352 149583,-585701 302,-363414 5662,-750126 -148,-1108503z"/>
  <g id="_2536748496704">
   <path class="fil0" d="M1260572 1824959l-116558 61342c-42223,21832 -75398,44762 -133425,44990 -56311,221 -92207,-24086 -133750,-44713 -24146,-11989 -101111,-48602 -117165,-62854 -22128,-6245 -325757,-166638 -377486,-192429 -47401,-23631 -72505,-45208 -97508,-88963 -16629,-29100 -24699,-73532 -28342,-122797l0 -605731 1506557 0c5287,46065 1538,497239 1617,562266 265,218787 -72749,226160 -252011,318952l-186424 97006c-21815,11124 -42613,25215 -65505,32931z"/>
   <path class="fil1" d="M759674 1823724c16054,14252 93019,50865 117165,62854 41543,20627 77439,44934 133750,44713 58027,-228 91202,-23158 133425,-44990l116558 -61342 540 -1011155 -502105 406 667 1009514z"/>
   <path class="fil2" d="M759007 814210l502105 -406 501783 0c5287,46065 1538,497239 1617,562266 265,218787 -72749,226160 -252011,318952l-186424 97006c-21815,11124 -42613,25215 -65505,32931l540 -1011155 -503046 0 941 406z"/>
   <path class="fil3" d="M759674 1823724l-667 -1009514 -941 -406 -501728 0 0 605731c3643,49265 11713,93697 28342,122797 25003,43755 50107,65332 97508,88963 51729,25791 355358,186184 377486,192429z"/>
  </g>
  <path class="fil4" d="M619436 486654l97299 24884c-14942,45621 -39845,79474 -74596,101658 -34749,22087 -78766,33179 -132165,33179 -66140,0 -120466,-18807 -163092,-56424 -42511,-37615 -63824,-89022 -63824,-154319 0,-68962 21429,-122588 64172,-160782 42741,-38194 99037,-57291 168767,-57291 60929,0 110389,15046 148382,45042 22704,17747 39614,43209 50967,76485l-99384 19675c-5908,-21411 -18186,-38387 -36835,-50829 -18765,-12442 -41469,-18615 -68110,-18615 -36951,0 -66952,10995 -89887,33083 -23051,21990 -34518,57677 -34518,107059 0,52276 11352,89602 33939,111786 22703,22280 52125,33371 88380,33371 26759,0 49809,-7041 69037,-21219 19228,-14178 33128,-36362 41468,-66743z"/>
  <path id="1" class="fil4" d="M1251304 639430l-108535 0 -42975 -94327 -199579 0 -41352 94327 -106567 0 193209 -414348 106451 0 199348 414348zm-184174 -164350l-69152 -153355 -67183 153355 136335 0z"/>
  <path id="2" class="fil4" d="M1304934 225082l183248 0c41351,0 72858,2604 94519,7908 29075,7139 54095,19869 74828,38195 20850,18229 36603,40605 47492,67129 10772,26427 16216,59124 16216,97896 0,34144 -5096,63464 -15289,88156 -12395,30188 -30118,54590 -53168,73205 -17375,14179 -40889,25174 -70426,33082 -22124,5884 -51662,8777 -88728,8777l-188692 0 0 -414348zm100775 70023l0 274303 74712 0c27916,0 48070,-1351 60465,-3955 16332,-3375 29768,-9163 40425,-17264 10773,-8102 19460,-21412 26179,-39930 6834,-18519 10193,-43885 10193,-75907 0,-32021 -3359,-56519 -10193,-73687 -6719,-17168 -16217,-30478 -28380,-40123 -12162,-9549 -27568,-16108 -46333,-19483 -13900,-2604 -41351,-3954 -82125,-3954l-44943 0z"/>
  <path class="fil4" d="M293871 760035l10779 4138c-1654,7587 -4414,13217 -8263,16907 -3851,3673 -8728,5518 -14643,5518 -7329,0 -13348,-3128 -18071,-9384 -4709,-6256 -7070,-14805 -7070,-25664 0,-11469 2373,-20387 7108,-26740 4737,-6352 10974,-9527 18699,-9527 6751,0 12231,2502 16440,7490 2516,2952 4390,7186 5647,12720l-11011 3273c-656,-3561 -2016,-6384 -4081,-8454 -2079,-2069 -4595,-3096 -7547,-3096 -4093,0 -7417,1829 -9958,5502 -2554,3657 -3824,9592 -3824,17805 0,8694 1257,14902 3759,18591 2515,3705 5775,5550 9793,5550 2964,0 5518,-1172 7648,-3529 2131,-2358 3671,-6047 4595,-11100z"/>
  <polygon id="1" class="fil4" points="314212,785443 314212,716533 355023,716533 355023,728179 325377,728179 325377,743481 352944,743481 352944,755127 325377,755127 325377,773797 356100,773797 356100,785443 "/>
  <polygon id="2" class="fil4" points="365571,785443 365571,716533 376377,716533 399067,762713 399067,716533 409386,716533 409386,785443 398233,785443 375890,740145 375890,785443 "/>
  <polygon id="3" class="fil4" points="433577,785443 433577,728179 417252,728179 417252,716533 460990,716533 460990,728179 444742,728179 444742,785443 "/>
  <path id="4" class="fil4" d="M468214 785443l0 -68910 23447 0c5891,0 10177,626 12847,1861 2682,1236 4812,3433 6416,6593 1605,3176 2413,6785 2413,10860 0,5181 -1207,9447 -3632,12816 -2426,3367 -6045,5486 -10870,6367 2399,1749 4376,3674 5929,5775 1566,2102 3670,5839 6314,11196l6725 13442 -13309 0 -7983 -15046c-2861,-5342 -4824,-8709 -5889,-10106 -1052,-1379 -2170,-2341 -3350,-2855 -1194,-513 -3067,-769 -5634,-769l-2258 0 0 28776 -11166 0zm11166 -39748l8239 0c5338,0 8662,-288 9997,-850 1321,-561 2374,-1540 3118,-2919 757,-1380 1130,-3113 1130,-5181 0,-2326 -500,-4187 -1489,-5631 -988,-1427 -2387,-2325 -4184,-2694 -911,-161 -3619,-241 -8123,-241l-8688 0 0 17516z"/>
  <path id="5" class="fil4" d="M521511 751406c0,-7026 848,-12929 2529,-17709 1245,-3513 2965,-6673 5133,-9464 2170,-2791 4543,-4861 7123,-6223 3439,-1813 7405,-2727 11897,-2727 8137,0 14630,3160 19519,9464 4878,6319 7316,15093 7316,26338 0,11147 -2425,19873 -7264,26162 -4838,6303 -11319,9447 -19417,9447 -8201,0 -14733,-3128 -19572,-9400 -4837,-6255 -7264,-14885 -7264,-25888zm11474 -466c0,7811 1450,13730 4338,17772 2887,4027 6558,6048 10998,6048 4453,0 8098,-2005 10960,-5999 2849,-4011 4273,-10010 4273,-18013 0,-7908 -1385,-13811 -4170,-17693 -2773,-3898 -6455,-5839 -11063,-5839 -4594,0 -8303,1974 -11114,5903 -2810,3947 -4222,9881 -4222,17821z"/>
  <path id="6" class="fil4" d="M605110 716533l20302 0c4581,0 8072,434 10472,1316 3221,1187 5993,3304 8290,6352 2311,3031 4056,6753 5262,11164 1194,4395 1796,9833 1796,16281 0,5678 -564,10554 -1693,14661 -1373,5021 -3337,9079 -5891,12174 -1925,2358 -4530,4187 -7803,5502 -2451,979 -5723,1460 -9830,1460l-20905 0 0 -68910zm11164 11646l0 45618 8277 0c3094,0 5327,-224 6700,-657 1810,-562 3299,-1524 4479,-2871 1194,-1348 2156,-3561 2900,-6641 758,-3079 1129,-7298 1129,-12623 0,-5326 -371,-9400 -1129,-12255 -744,-2856 -1797,-5069 -3143,-6673 -1349,-1588 -3056,-2679 -5135,-3241 -1539,-432 -4581,-657 -9098,-657l-4980 0z"/>
  <polygon id="7" class="fil4" points="660717,785443 660717,716533 701528,716533 701528,728179 671882,728179 671882,743481 699449,743481 699449,755127 671882,755127 671882,773797 702606,773797 702606,785443 "/>
  <path id="8" class="fil4" d="M780274 785443l-12024 0 -4762 -15688 -22113 0 -4582 15688 -11806 0 21406 -68910 11794 0 22087 68910zm-20406 -27333l-7661 -25504 -7443 25504 15104 0z"/>
  <path id="9" class="fil4" d="M821483 760035l10779 4138c-1654,7587 -4414,13217 -8264,16907 -3850,3673 -8728,5518 -14643,5518 -7328,0 -13347,-3128 -18069,-9384 -4711,-6256 -7072,-14805 -7072,-25664 0,-11469 2374,-20387 7110,-26740 4735,-6352 10972,-9527 18698,-9527 6750,0 12230,2502 16440,7490 2515,2952 4389,7186 5647,12720l-11012 3273c-654,-3561 -2015,-6384 -4081,-8454 -2079,-2069 -4594,-3096 -7546,-3096 -4094,0 -7418,1829 -9959,5502 -2554,3657 -3823,9592 -3823,17805 0,8694 1257,14902 3759,18591 2515,3705 5775,5550 9792,5550 2965,0 5518,-1172 7649,-3529 2130,-2358 3670,-6047 4595,-11100z"/>
  <polygon id="10" class="fil4" points="854221,785443 854221,728179 837896,728179 837896,716533 881633,716533 881633,728179 865386,728179 865386,785443 "/>
  <polygon id="11" class="fil4" points="888473,785443 888473,716533 899639,716533 899639,785443 "/>
  <polygon id="12" class="fil4" points="924356,785443 904630,716533 916694,716533 930695,767542 944132,716533 955990,716533 936381,785443 "/>
  <polygon id="13" class="fil4" points="961227,785443 961227,716533 972391,716533 972391,785443 "/>
  <path id="14" class="fil4" d="M983005 716533l20303 0c4581,0 8071,434 10471,1316 3221,1187 5993,3304 8291,6352 2310,3031 4055,6753 5261,11164 1195,4395 1797,9833 1797,16281 0,5678 -564,10554 -1694,14661 -1373,5021 -3337,9079 -5891,12174 -1925,2358 -4530,4187 -7802,5502 -2451,979 -5724,1460 -9831,1460l-20905 0 0 -68910zm11165 11646l0 45618 8278 0c3092,0 5325,-224 6699,-657 1809,-562 3298,-1524 4479,-2871 1193,-1348 2155,-3561 2900,-6641 757,-3079 1129,-7298 1129,-12623 0,-5326 -372,-9400 -1129,-12255 -745,-2856 -1797,-5069 -3144,-6673 -1348,-1588 -3055,-2679 -5133,-3241 -1540,-432 -4582,-657 -9099,-657l-4980 0z"/>
  <path id="15" class="fil4" d="M1088278 785443l-12025 0 -4762 -15688 -22111 0 -4582 15688 -11807 0 21406 -68910 11794 0 22087 68910zm-20406 -27333l-7661 -25504 -7443 25504 15104 0z"/>
  <path id="16" class="fil4" d="M1094220 716533l20303 0c4581,0 8072,434 10472,1316 3221,1187 5993,3304 8291,6352 2309,3031 4055,6753 5261,11164 1194,4395 1797,9833 1797,16281 0,5678 -565,10554 -1694,14661 -1374,5021 -3337,9079 -5891,12174 -1925,2358 -4530,4187 -7803,5502 -2451,979 -5723,1460 -9830,1460l-20906 0 0 -68910zm11166 11646l0 45618 8277 0c3093,0 5327,-224 6699,-657 1809,-562 3298,-1524 4479,-2871 1193,-1348 2156,-3561 2900,-6641 758,-3079 1129,-7298 1129,-12623 0,-5326 -371,-9400 -1129,-12255 -744,-2856 -1796,-5069 -3144,-6673 -1347,-1588 -3054,-2679 -5133,-3241 -1540,-432 -4582,-657 -9099,-657l-4979 0z"/>
  <polygon id="17" class="fil4" points="1149828,785443 1149828,716533 1190639,716533 1190639,728179 1160993,728179 1160993,743481 1188559,743481 1188559,755127 1160993,755127 1160993,773797 1191716,773797 1191716,785443 "/>
  <path id="18" class="fil4" d="M1198262 763114l10857 -1346c654,4539 1963,7859 3952,9992 1990,2134 4672,3192 8047,3192 3568,0 6263,-946 8072,-2839 1810,-1892 2720,-4106 2720,-6641 0,-1636 -384,-3015 -1140,-4170 -759,-1139 -2093,-2133 -3992,-2968 -1297,-577 -4248,-1571 -8868,-3015 -5941,-1861 -10113,-4138 -12513,-6849 -3375,-3801 -5057,-8438 -5057,-13907 0,-3513 796,-6817 2374,-9881 1593,-3064 3876,-5390 6867,-6993 2989,-1604 6584,-2406 10818,-2406 6891,0 12090,1908 15568,5742 3490,3834 5312,8934 5492,15334l-11166 482c-474,-3561 -1487,-6111 -3041,-7668 -1552,-1556 -3888,-2342 -6994,-2342 -3208,0 -5724,835 -7533,2503 -1168,1075 -1758,2502 -1758,4298 0,1637 551,3032 1655,4187 1399,1491 4800,3031 10203,4636 5403,1588 9394,3256 11973,4956 2592,1717 4620,4042 6084,7010 1463,2968 2194,6625 2194,10971 0,3946 -872,7652 -2630,11100 -1759,3449 -4236,6016 -7444,7683 -3208,1685 -7212,2519 -11999,2519 -6969,0 -12320,-2005 -16055,-6031 -3735,-4011 -5955,-9865 -6686,-17549z"/>
  <path id="19" class="fil4" d="M1273941 716533l20303 0c4581,0 8071,434 10471,1316 3221,1187 5994,3304 8291,6352 2310,3031 4055,6753 5262,11164 1193,4395 1796,9833 1796,16281 0,5678 -565,10554 -1694,14661 -1373,5021 -3337,9079 -5891,12174 -1925,2358 -4529,4187 -7802,5502 -2451,979 -5724,1460 -9830,1460l-20906 0 0 -68910zm11165 11646l0 45618 8278 0c3092,0 5326,-224 6699,-657 1809,-562 3298,-1524 4479,-2871 1193,-1348 2155,-3561 2900,-6641 757,-3079 1129,-7298 1129,-12623 0,-5326 -372,-9400 -1129,-12255 -745,-2856 -1797,-5069 -3144,-6673 -1348,-1588 -3055,-2679 -5133,-3241 -1540,-432 -4582,-657 -9099,-657l-4980 0z"/>
  <polygon id="20" class="fil4" points="1329549,785443 1329549,716533 1370359,716533 1370359,728179 1340713,728179 1340713,743481 1368280,743481 1368280,755127 1340713,755127 1340713,773797 1371437,773797 1371437,785443 "/>
  <path id="21" class="fil4" d="M1380909 785443l0 -68910 17851 0c6763,0 11165,337 13218,1027 3157,1043 5801,3289 7932,6753 2130,3465 3195,7940 3195,13426 0,4234 -616,7779 -1835,10667 -1233,2887 -2785,5148 -4672,6801 -1887,1636 -3811,2726 -5763,3256 -2656,658 -6493,994 -11524,994l-7238 0 0 25986 -11164 0zm11164 -57264l0 19633 6071 0c4375,0 7289,-368 8766,-1090 1475,-722 2630,-1845 3464,-3401 835,-1540 1257,-3320 1257,-5373 0,-2518 -590,-4588 -1758,-6224 -1180,-1636 -2656,-2663 -4465,-3080 -1322,-305 -3979,-465 -7983,-465l-5352 0z"/>
  <path id="22" class="fil4" d="M1429957 751406c0,-7026 848,-12929 2529,-17709 1244,-3513 2964,-6673 5133,-9464 2170,-2791 4543,-4861 7123,-6223 3439,-1813 7406,-2727 11897,-2727 8136,0 14631,3160 19520,9464 4876,6319 7314,15093 7314,26338 0,11147 -2424,19873 -7263,26162 -4838,6303 -11320,9447 -19417,9447 -8202,0 -14733,-3128 -19571,-9400 -4838,-6255 -7265,-14885 -7265,-25888zm11473 -466c0,7811 1452,13730 4339,17772 2887,4027 6558,6048 10998,6048 4453,0 8098,-2005 10960,-5999 2848,-4011 4274,-10010 4274,-18013 0,-7908 -1387,-13811 -4171,-17693 -2773,-3898 -6456,-5839 -11063,-5839 -4595,0 -8303,1974 -11115,5903 -2809,3947 -4222,9881 -4222,17821z"/>
  <path id="23" class="fil4" d="M1492162 785443l0 -68910 23447 0c5890,0 10177,626 12846,1861 2682,1236 4813,3433 6416,6593 1605,3176 2414,6785 2414,10860 0,5181 -1207,9447 -3633,12816 -2425,3367 -6044,5486 -10869,6367 2399,1749 4376,3674 5928,5775 1566,2102 3671,5839 6315,11196l6724 13442 -13308 0 -7983 -15046c-2862,-5342 -4825,-8709 -5889,-10106 -1053,-1379 -2170,-2341 -3350,-2855 -1194,-513 -3068,-769 -5634,-769l-2259 0 0 28776 -11165 0zm11165 -39748l8240 0c5338,0 8662,-288 9997,-850 1321,-561 2374,-1540 3118,-2919 757,-1380 1129,-3113 1129,-5181 0,-2326 -501,-4187 -1488,-5631 -989,-1427 -2388,-2325 -4184,-2694 -911,-161 -3619,-241 -8124,-241l-8688 0 0 17516z"/>
  <polygon id="24" class="fil4" points="1560167,785443 1560167,728179 1543842,728179 1543842,716533 1587579,716533 1587579,728179 1571331,728179 1571331,785443 "/>
  <polygon id="25" class="fil4" points="1594419,785443 1594419,716533 1605585,716533 1605585,785443 "/>
  <polygon id="26" class="fil4" points="1630302,785443 1610576,716533 1622640,716533 1636642,767542 1650078,716533 1661936,716533 1642327,785443 "/>
  <path id="27" class="fil4" d="M1711512 785443l-12024 0 -4762 -15688 -22113 0 -4581 15688 -11807 0 21406 -68910 11795 0 22086 68910zm-20405 -27333l-7661 -25504 -7444 25504 15105 0z"/>
  <path id="28" class="fil4" d="M1714528 763114l10858 -1346c653,4539 1963,7859 3952,9992 1990,2134 4672,3192 8047,3192 3567,0 6262,-946 8072,-2839 1810,-1892 2720,-4106 2720,-6641 0,-1636 -385,-3015 -1142,-4170 -757,-1139 -2092,-2133 -3990,-2968 -1297,-577 -4249,-1571 -8869,-3015 -5942,-1861 -10112,-4138 -12513,-6849 -3374,-3801 -5056,-8438 -5056,-13907 0,-3513 796,-6817 2374,-9881 1591,-3064 3876,-5390 6867,-6993 2989,-1604 6582,-2406 10818,-2406 6891,0 12088,1908 15567,5742 3491,3834 5313,8934 5493,15334l-11166 482c-474,-3561 -1488,-6111 -3041,-7668 -1553,-1556 -3889,-2342 -6994,-2342 -3209,0 -5724,835 -7534,2503 -1167,1075 -1758,2502 -1758,4298 0,1637 552,3032 1656,4187 1399,1491 4799,3031 10202,4636 5403,1588 9395,3256 11974,4956 2592,1717 4620,4042 6083,7010 1462,2968 2194,6625 2194,10971 0,3946 -872,7652 -2630,11100 -1759,3449 -4235,6016 -7443,7683 -3209,1685 -7213,2519 -11999,2519 -6970,0 -12321,-2005 -16056,-6031 -3734,-4011 -5955,-9865 -6686,-17549z"/>
 </g>
</svg>
